<svg width="738" height="738" viewBox="0 0 738 738" fill="none" xmlns="http://www.w3.org/2000/svg">
<path d="M418.561 -210.263C307.693 -180.556 241.9 -66.5982 271.607 44.2692C274.015 53.2584 268.68 62.4985 259.691 64.9071C148.824 94.614 83.0301 208.571 112.737 319.439C142.444 430.307 256.402 496.102 367.27 466.395C376.259 463.986 385.499 469.32 387.907 478.307C417.614 589.175 531.571 654.97 642.439 625.263C753.307 595.556 819.102 481.597 789.395 370.729C786.986 361.741 792.32 352.503 801.308 350.095C912.176 320.388 977.97 206.429 948.263 95.5608C918.556 -15.3074 804.597 -81.1 693.729 -51.393C684.742 -48.9848 675.503 -54.3199 673.094 -63.3091C643.388 -174.177 529.429 -239.97 418.561 -210.263Z" fill="#96CDF6"/>
<path d="M481.146 -117.452C403.349 -96.6064 357.182 -16.6419 378.027 61.1541C379.718 67.4619 375.974 73.9457 369.666 75.6359C291.87 96.4812 245.703 176.445 266.548 254.242C287.394 332.038 367.358 378.206 445.154 357.361C451.462 355.671 457.946 359.413 459.636 365.72C480.481 443.517 560.445 489.685 638.242 468.839C716.038 447.994 762.206 368.029 741.361 290.232C739.671 283.925 743.414 277.443 749.72 275.753C827.517 254.907 873.685 174.942 852.839 97.1456C831.994 19.3491 752.029 -26.8179 674.232 -5.97234C667.926 -4.28247 661.443 -8.02619 659.753 -14.3339C638.907 -92.1299 558.942 -138.297 481.146 -117.452Z" fill="#CEE8FB"/>
</svg>
