<svg width="671" height="320" viewBox="0 0 671 320" fill="none" xmlns="http://www.w3.org/2000/svg">
<path d="M69.76 21.6334C-33.2277 72.3066 -75.636 196.872 -24.9631 299.859C-20.8545 308.21 -24.2932 318.31 -32.6434 322.418C-135.63 373.091 -178.04 497.657 -127.367 600.644C-76.6934 703.632 47.8729 746.042 150.86 695.369C159.21 691.26 169.31 694.697 173.418 703.046C224.091 806.034 348.657 848.444 451.644 797.771C554.632 747.098 597.041 622.531 546.368 519.543C542.26 511.194 545.698 501.096 554.047 496.988C657.035 446.315 699.444 321.748 648.771 218.76C598.098 115.772 473.531 73.3643 370.544 124.038C362.195 128.145 352.096 124.706 347.987 116.356C297.314 13.3688 172.748 -29.0399 69.76 21.6334Z" fill="#CEE8FB"/>
</svg>
