<svg width="32" height="33" viewBox="0 0 32 33" fill="none" xmlns="http://www.w3.org/2000/svg">
<path d="M27.2198 5.20765C24.607 2.57394 21.1587 0.935694 17.4692 0.57533C13.7797 0.214966 10.0802 1.15507 7.00863 3.23358C3.93704 5.31208 1.68579 8.39872 0.643005 11.9614C-0.399782 15.524 -0.168759 19.3394 1.29625 22.7497C1.44894 23.0667 1.49904 23.4235 1.43956 23.7704L0.0382865 30.5161C-0.0157004 30.7747 -0.00467617 31.0427 0.0703685 31.296C0.145413 31.5493 0.282127 31.78 0.468222 31.9673C0.620776 32.119 0.802416 32.2381 1.00219 32.3176C1.20197 32.3971 1.41575 32.4352 1.63064 32.4298H1.94911L8.76438 31.0583C9.11077 31.0166 9.46202 31.066 9.78349 31.2018C13.1887 32.669 16.9984 32.9004 20.5557 31.856C24.1131 30.8117 27.1951 28.5571 29.2705 25.4809C31.3459 22.4047 32.2846 18.6997 31.9248 15.0047C31.565 11.3097 29.9291 7.85616 27.2994 5.23954L27.2198 5.20765ZM9.59241 18.0772C9.27747 18.0772 8.9696 17.9836 8.70774 17.8084C8.44588 17.6332 8.24179 17.3841 8.12126 17.0927C8.00074 16.8013 7.96921 16.4806 8.03065 16.1713C8.09209 15.862 8.24375 15.5778 8.46644 15.3548C8.68914 15.1317 8.97287 14.9799 9.28175 14.9183C9.59064 14.8568 9.91081 14.8884 10.2018 15.0091C10.4927 15.1298 10.7414 15.3342 10.9164 15.5964C11.0914 15.8587 11.1848 16.167 11.1848 16.4824C11.1848 16.9054 11.017 17.311 10.7184 17.6101C10.4197 17.9091 10.0147 18.0772 9.59241 18.0772ZM15.9618 18.0772C15.6469 18.0772 15.339 17.9836 15.0772 17.8084C14.8153 17.6332 14.6112 17.3841 14.4907 17.0927C14.3702 16.8013 14.3386 16.4806 14.4001 16.1713C14.4615 15.862 14.6132 15.5778 14.8359 15.3548C15.0586 15.1317 15.3423 14.9799 15.6512 14.9183C15.9601 14.8568 16.2802 14.8884 16.5712 15.0091C16.8622 15.1298 17.1108 15.3342 17.2858 15.5964C17.4608 15.8587 17.5542 16.167 17.5542 16.4824C17.5542 16.9054 17.3864 17.311 17.0878 17.6101C16.7892 17.9091 16.3841 18.0772 15.9618 18.0772ZM22.3312 18.0772C22.0163 18.0772 21.7084 17.9836 21.4466 17.8084C21.1847 17.6332 20.9806 17.3841 20.8601 17.0927C20.7396 16.8013 20.708 16.4806 20.7695 16.1713C20.8309 15.862 20.9826 15.5778 21.2053 15.3548C21.428 15.1317 21.7117 14.9799 22.0206 14.9183C22.3295 14.8568 22.6496 14.8884 22.9406 15.0091C23.2316 15.1298 23.4803 15.3342 23.6552 15.5964C23.8302 15.8587 23.9236 16.167 23.9236 16.4824C23.9236 16.9054 23.7558 17.311 23.4572 17.6101C23.1586 17.9091 22.7536 18.0772 22.3312 18.0772Z" fill="#62B4F2"/>
</svg>
