<svg width="32" height="33" viewBox="0 0 32 33" fill="none" xmlns="http://www.w3.org/2000/svg">
<path d="M24.5908 32.4997C18.0715 32.4912 11.8217 29.8926 7.21182 25.2736C2.60197 20.6546 0.00845017 14.3923 0 7.86008C0 5.90811 0.773879 4.03609 2.15139 2.65585C3.5289 1.2756 5.39721 0.500183 7.34531 0.500183C7.75783 0.497034 8.16966 0.534548 8.57485 0.612181C8.96656 0.670261 9.35164 0.766722 9.72455 0.900177C9.98682 0.992383 10.2205 1.15159 10.4026 1.36205C10.5846 1.5725 10.7087 1.82693 10.7625 2.10016L12.9501 11.7C13.0091 11.9606 13.002 12.2318 12.9294 12.4889C12.8569 12.7461 12.7213 12.9809 12.5349 13.172C12.3273 13.396 12.3114 13.412 10.3473 14.436C11.9201 17.8933 14.6798 20.6697 18.1237 22.2599C19.1617 20.2759 19.1776 20.2599 19.4012 20.0519C19.5919 19.8652 19.8263 19.7293 20.0829 19.6566C20.3395 19.5839 20.6102 19.5768 20.8703 19.6359L30.4511 21.8279C30.715 21.8892 30.9591 22.0169 31.1602 22.1988C31.3613 22.3808 31.513 22.611 31.6008 22.8679C31.7356 23.2476 31.8371 23.6384 31.9042 24.0358C31.9684 24.438 32.0005 24.8446 32 25.2518C31.9705 27.1954 31.1749 29.0485 29.7868 30.4064C28.3986 31.7643 26.5307 32.5168 24.5908 32.4997Z" fill="#62B4F2"/>
</svg>
