<svg width="32" height="23" viewBox="0 0 32 23" fill="none" xmlns="http://www.w3.org/2000/svg">
<path d="M30.3848 4.10953C29.8989 3.90107 29.3595 3.83326 28.8335 3.91454C28.3075 3.99581 27.8181 4.22258 27.4263 4.56667L23.988 7.61429V5.40476C23.988 4.19235 23.4825 3.02959 22.5828 2.17228C21.6831 1.31497 20.4628 0.833336 19.1904 0.833336H4.7976C3.5252 0.833336 2.30491 1.31497 1.40518 2.17228C0.50546 3.02959 0 4.19235 0 5.40476V17.5952C0 18.8077 0.50546 19.9704 1.40518 20.8277C2.30491 21.685 3.5252 22.1667 4.7976 22.1667H19.1904C20.4628 22.1667 21.6831 21.685 22.5828 20.8277C23.4825 19.9704 23.988 18.8077 23.988 17.5952V15.3857L27.4423 18.4333C27.9508 18.872 28.6114 19.1162 29.2973 19.119C29.678 19.1182 30.0541 19.0403 30.4008 18.8905C30.8725 18.7087 31.2766 18.397 31.5614 17.9953C31.8463 17.5936 31.999 17.1201 32 16.6352V6.36476C31.9977 5.87819 31.8426 5.40341 31.5548 5.0015C31.2669 4.59959 30.8595 4.28895 30.3848 4.10953Z" fill="#62B4F2"/>
</svg>
